# Exported from ProBuilder
# http://www.procore3d.com/probuilder
# 10/12/2018 5:39:01 PM

mtllib ./Button.mtl
o Button

g Button
v 0.015 0.145 0
v 0.035 0.145 0
v 0.015 0.1443185 0.005176381
v 0.035 0.1443185 0.005176381
v 0.015 0.1443185 0.005176381
v 0.035 0.1443185 0.005176381
v 0.015 0.1423205 0.01
v 0.035 0.1423205 0.01
v 0.015 0.1423205 0.01
v 0.035 0.1423205 0.01
v 0.015 0.1391421 0.01414214
v 0.035 0.1391421 0.01414214
v 0.015 0.1391421 0.01414214
v 0.035 0.1391421 0.01414214
v 0.015 0.135 0.01732051
v 0.035 0.135 0.01732051
v 0.015 0.135 0.01732051
v 0.035 0.135 0.01732051
v 0.015 0.1301764 0.01931852
v 0.035 0.1301764 0.01931852
v 0.015 0.1301764 0.01931852
v 0.035 0.1301764 0.01931852
v 0.015 0.125 0.02
v 0.035 0.125 0.02
v 0.015 0.125 0.02
v 0.035 0.125 0.02
v 0.015 0.1198236 0.01931852
v 0.035 0.1198236 0.01931852
v 0.015 0.1198236 0.01931852
v 0.035 0.1198236 0.01931852
v 0.015 0.115 0.01732051
v 0.035 0.115 0.01732051
v 0.015 0.115 0.01732051
v 0.035 0.115 0.01732051
v 0.015 0.1108579 0.01414214
v 0.035 0.1108579 0.01414214
v 0.015 0.1108579 0.01414214
v 0.035 0.1108579 0.01414214
v 0.015 0.1076795 0.01
v 0.035 0.1076795 0.01
v 0.015 0.1076795 0.01
v 0.035 0.1076795 0.01
v 0.015 0.1056815 0.005176383
v 0.035 0.1056815 0.005176383
v 0.015 0.1056815 0.005176383
v 0.035 0.1056815 0.005176383
v 0.015 0.105 -1.748455E-09
v 0.035 0.105 -1.748455E-09
v 0.015 0.105 -1.748455E-09
v 0.035 0.105 -1.748455E-09
v 0.015 0.1056815 -0.005176381
v 0.035 0.1056815 -0.005176381
v 0.015 0.1056815 -0.005176381
v 0.035 0.1056815 -0.005176381
v 0.015 0.1076795 -0.009999999
v 0.035 0.1076795 -0.009999999
v 0.015 0.1076795 -0.009999999
v 0.035 0.1076795 -0.009999999
v 0.015 0.1108579 -0.01414213
v 0.035 0.1108579 -0.01414213
v 0.015 0.1108579 -0.01414213
v 0.035 0.1108579 -0.01414213
v 0.015 0.115 -0.01732051
v 0.035 0.115 -0.01732051
v 0.015 0.115 -0.01732051
v 0.035 0.115 -0.01732051
v 0.015 0.1198236 -0.01931852
v 0.035 0.1198236 -0.01931852
v 0.015 0.1198236 -0.01931852
v 0.035 0.1198236 -0.01931852
v 0.015 0.125 -0.02
v 0.035 0.125 -0.02
v 0.015 0.125 -0.02
v 0.035 0.125 -0.02
v 0.015 0.1301764 -0.01931852
v 0.035 0.1301764 -0.01931852
v 0.015 0.1301764 -0.01931852
v 0.035 0.1301764 -0.01931852
v 0.015 0.135 -0.01732051
v 0.035 0.135 -0.01732051
v 0.015 0.135 -0.01732051
v 0.035 0.135 -0.01732051
v 0.015 0.1391421 -0.01414214
v 0.035 0.1391421 -0.01414214
v 0.015 0.1391421 -0.01414214
v 0.035 0.1391421 -0.01414214
v 0.015 0.1423205 -0.01
v 0.035 0.1423205 -0.01
v 0.015 0.1423205 -0.01
v 0.035 0.1423205 -0.01
v 0.015 0.1443185 -0.005176385
v 0.035 0.1443185 -0.005176385
v 0.015 0.1443185 -0.005176385
v 0.035 0.1443185 -0.005176385
v 0.015 0.145 0
v 0.035 0.145 0
v 0.015 0.145 0
v 0.015 0.125 0
v 0.015 0.1443185 0.005176381
v 0.035 0.145 0
v 0.035 0.125 0
v 0.035 0.1443185 0.005176381
v 0.015 0.1443185 0.005176381
v 0.015 0.125 0
v 0.015 0.1423205 0.01
v 0.035 0.1443185 0.005176381
v 0.035 0.125 0
v 0.035 0.1423205 0.01
v 0.015 0.1423205 0.01
v 0.015 0.125 0
v 0.015 0.1391421 0.01414214
v 0.035 0.1423205 0.01
v 0.035 0.125 0
v 0.035 0.1391421 0.01414214
v 0.015 0.1391421 0.01414214
v 0.015 0.125 0
v 0.015 0.135 0.01732051
v 0.035 0.1391421 0.01414214
v 0.035 0.125 0
v 0.035 0.135 0.01732051
v 0.015 0.135 0.01732051
v 0.015 0.125 0
v 0.015 0.1301764 0.01931852
v 0.035 0.135 0.01732051
v 0.035 0.125 0
v 0.035 0.1301764 0.01931852
v 0.015 0.1301764 0.01931852
v 0.015 0.125 0
v 0.015 0.125 0.02
v 0.035 0.1301764 0.01931852
v 0.035 0.125 0
v 0.035 0.125 0.02
v 0.015 0.125 0.02
v 0.015 0.125 0
v 0.015 0.1198236 0.01931852
v 0.035 0.125 0.02
v 0.035 0.125 0
v 0.035 0.1198236 0.01931852
v 0.015 0.1198236 0.01931852
v 0.015 0.125 0
v 0.015 0.115 0.01732051
v 0.035 0.1198236 0.01931852
v 0.035 0.125 0
v 0.035 0.115 0.01732051
v 0.015 0.115 0.01732051
v 0.015 0.125 0
v 0.015 0.1108579 0.01414214
v 0.035 0.115 0.01732051
v 0.035 0.125 0
v 0.035 0.1108579 0.01414214
v 0.015 0.1108579 0.01414214
v 0.015 0.125 0
v 0.015 0.1076795 0.01
v 0.035 0.1108579 0.01414214
v 0.035 0.125 0
v 0.035 0.1076795 0.01
v 0.015 0.1076795 0.01
v 0.015 0.125 0
v 0.015 0.1056815 0.005176383
v 0.035 0.1076795 0.01
v 0.035 0.125 0
v 0.035 0.1056815 0.005176383
v 0.015 0.1056815 0.005176383
v 0.015 0.125 0
v 0.015 0.105 -1.748455E-09
v 0.035 0.1056815 0.005176383
v 0.035 0.125 0
v 0.035 0.105 -1.748455E-09
v 0.015 0.105 -1.748455E-09
v 0.015 0.125 0
v 0.015 0.1056815 -0.005176381
v 0.035 0.105 -1.748455E-09
v 0.035 0.125 0
v 0.035 0.1056815 -0.005176381
v 0.015 0.1056815 -0.005176381
v 0.015 0.125 0
v 0.015 0.1076795 -0.009999999
v 0.035 0.1056815 -0.005176381
v 0.035 0.125 0
v 0.035 0.1076795 -0.009999999
v 0.015 0.1076795 -0.009999999
v 0.015 0.125 0
v 0.015 0.1108579 -0.01414213
v 0.035 0.1076795 -0.009999999
v 0.035 0.125 0
v 0.035 0.1108579 -0.01414213
v 0.015 0.1108579 -0.01414213
v 0.015 0.125 0
v 0.015 0.115 -0.01732051
v 0.035 0.1108579 -0.01414213
v 0.035 0.125 0
v 0.035 0.115 -0.01732051
v 0.015 0.115 -0.01732051
v 0.015 0.125 0
v 0.015 0.1198236 -0.01931852
v 0.035 0.115 -0.01732051
v 0.035 0.125 0
v 0.035 0.1198236 -0.01931852
v 0.015 0.1198236 -0.01931852
v 0.015 0.125 0
v 0.015 0.125 -0.02
v 0.035 0.1198236 -0.01931852
v 0.035 0.125 0
v 0.035 0.125 -0.02
v 0.015 0.125 -0.02
v 0.015 0.125 0
v 0.015 0.1301764 -0.01931852
v 0.035 0.125 -0.02
v 0.035 0.125 0
v 0.035 0.1301764 -0.01931852
v 0.015 0.1301764 -0.01931852
v 0.015 0.125 0
v 0.015 0.135 -0.01732051
v 0.035 0.1301764 -0.01931852
v 0.035 0.125 0
v 0.035 0.135 -0.01732051
v 0.015 0.135 -0.01732051
v 0.015 0.125 0
v 0.015 0.1391421 -0.01414214
v 0.035 0.135 -0.01732051
v 0.035 0.125 0
v 0.035 0.1391421 -0.01414214
v 0.015 0.1391421 -0.01414214
v 0.015 0.125 0
v 0.015 0.1423205 -0.01
v 0.035 0.1391421 -0.01414214
v 0.035 0.125 0
v 0.035 0.1423205 -0.01
v 0.015 0.1423205 -0.01
v 0.015 0.125 0
v 0.015 0.1443185 -0.005176385
v 0.035 0.1423205 -0.01
v 0.035 0.125 0
v 0.035 0.1443185 -0.005176385
v 0.015 0.1443185 -0.005176385
v 0.015 0.125 0
v 0.015 0.145 0
v 0.035 0.1443185 -0.005176385
v 0.035 0.125 0
v 0.035 0.145 0

vn 1.181894E-07 0.9914449 5.960464E-08
vn 1.181894E-07 0.9914449 5.960464E-08
vn 1.141622E-07 0.9576623 0.2566048
vn 1.141622E-07 0.9576623 0.2566048
vn 1.141622E-07 0.9576623 0.2566048
vn 1.141622E-07 0.9576623 0.2566048
vn 1.023551E-07 0.8586165 0.4957224
vn 1.023551E-07 0.8586165 0.4957224
vn 1.023551E-07 0.8586165 0.4957224
vn 1.023551E-07 0.8586165 0.4957224
vn 8.357256E-08 0.7010575 0.7010574
vn 8.357256E-08 0.7010575 0.7010574
vn 8.357256E-08 0.7010575 0.7010574
vn 8.357256E-08 0.7010575 0.7010574
vn 5.909472E-08 0.4957225 0.8586165
vn 5.909472E-08 0.4957225 0.8586165
vn 5.909472E-08 0.4957225 0.8586165
vn 5.909472E-08 0.4957225 0.8586165
vn 3.058968E-08 0.2566049 0.9576622
vn 3.058968E-08 0.2566049 0.9576622
vn 3.058968E-08 0.2566049 0.9576622
vn 3.058968E-08 0.2566049 0.9576622
vn -2.664535E-15 -2.235175E-08 0.9914448
vn -2.664535E-15 -2.235175E-08 0.9914448
vn -2.664535E-15 -2.235175E-08 0.9914448
vn -2.664535E-15 -2.235175E-08 0.9914448
vn -3.058967E-08 -0.2566048 0.9576622
vn -3.058967E-08 -0.2566048 0.9576622
vn -3.058967E-08 -0.2566048 0.9576622
vn -3.058967E-08 -0.2566048 0.9576622
vn -5.909472E-08 -0.4957225 0.8586165
vn -5.909472E-08 -0.4957225 0.8586165
vn -5.909472E-08 -0.4957225 0.8586165
vn -5.909472E-08 -0.4957225 0.8586165
vn -8.357256E-08 -0.7010575 0.7010574
vn -8.357256E-08 -0.7010575 0.7010574
vn -8.357256E-08 -0.7010575 0.7010574
vn -8.357256E-08 -0.7010575 0.7010574
vn -1.02355E-07 -0.8586165 0.4957224
vn -1.02355E-07 -0.8586165 0.4957224
vn -1.02355E-07 -0.8586165 0.4957224
vn -1.02355E-07 -0.8586165 0.4957224
vn -1.141622E-07 -0.9576623 0.2566047
vn -1.141622E-07 -0.9576623 0.2566047
vn -1.141622E-07 -0.9576623 0.2566047
vn -1.141622E-07 -0.9576623 0.2566047
vn -1.181894E-07 -0.9914449 -6.705523E-08
vn -1.181894E-07 -0.9914449 -6.705523E-08
vn -1.181894E-07 -0.9914449 -6.705523E-08
vn -1.181894E-07 -0.9914449 -6.705523E-08
vn -1.141622E-07 -0.9576623 -0.2566049
vn -1.141622E-07 -0.9576623 -0.2566049
vn -1.141622E-07 -0.9576623 -0.2566049
vn -1.141622E-07 -0.9576623 -0.2566049
vn -1.023551E-07 -0.8586166 -0.4957224
vn -1.023551E-07 -0.8586166 -0.4957224
vn -1.023551E-07 -0.8586166 -0.4957224
vn -1.023551E-07 -0.8586166 -0.4957224
vn -8.357255E-08 -0.7010574 -0.7010574
vn -8.357255E-08 -0.7010574 -0.7010574
vn -8.357255E-08 -0.7010574 -0.7010574
vn -8.357255E-08 -0.7010574 -0.7010574
vn -5.909472E-08 -0.4957225 -0.8586165
vn -5.909472E-08 -0.4957225 -0.8586165
vn -5.909472E-08 -0.4957225 -0.8586165
vn -5.909472E-08 -0.4957225 -0.8586165
vn -3.058967E-08 -0.2566048 -0.9576622
vn -3.058967E-08 -0.2566048 -0.9576622
vn -3.058967E-08 -0.2566048 -0.9576622
vn -3.058967E-08 -0.2566048 -0.9576622
vn 2.04281E-14 1.713634E-07 -0.9914448
vn 2.04281E-14 1.713634E-07 -0.9914448
vn 2.04281E-14 1.713634E-07 -0.9914448
vn 2.04281E-14 1.713634E-07 -0.9914448
vn 3.058968E-08 0.2566049 -0.9576622
vn 3.058968E-08 0.2566049 -0.9576622
vn 3.058968E-08 0.2566049 -0.9576622
vn 3.058968E-08 0.2566049 -0.9576622
vn 5.909472E-08 0.4957225 -0.8586165
vn 5.909472E-08 0.4957225 -0.8586165
vn 5.909472E-08 0.4957225 -0.8586165
vn 5.909472E-08 0.4957225 -0.8586165
vn 8.357254E-08 0.7010574 -0.7010576
vn 8.357254E-08 0.7010574 -0.7010576
vn 8.357254E-08 0.7010574 -0.7010576
vn 8.357254E-08 0.7010574 -0.7010576
vn 1.02355E-07 0.8586165 -0.4957227
vn 1.02355E-07 0.8586165 -0.4957227
vn 1.02355E-07 0.8586165 -0.4957227
vn 1.02355E-07 0.8586165 -0.4957227
vn 1.141622E-07 0.9576623 -0.2566049
vn 1.141622E-07 0.9576623 -0.2566049
vn 1.141622E-07 0.9576623 -0.2566049
vn 1.141622E-07 0.9576623 -0.2566049
vn 1.181894E-07 0.9914449 5.960464E-08
vn 1.181894E-07 0.9914449 5.960464E-08
vn -1 1.192093E-07 0
vn -1 1.192093E-07 0
vn -1 1.192093E-07 0
vn 1 -1.192093E-07 0
vn 1 -1.192093E-07 0
vn 1 -1.192093E-07 0
vn -1 1.192093E-07 0
vn -1 1.192093E-07 0
vn -1 1.192093E-07 0
vn 1 -1.192093E-07 0
vn 1 -1.192093E-07 0
vn 1 -1.192093E-07 0
vn -1 1.192093E-07 0
vn -1 1.192093E-07 0
vn -1 1.192093E-07 0
vn 1 -1.192093E-07 0
vn 1 -1.192093E-07 0
vn 1 -1.192093E-07 0
vn -1 1.192093E-07 0
vn -1 1.192093E-07 0
vn -1 1.192093E-07 0
vn 1 -1.192093E-07 0
vn 1 -1.192093E-07 0
vn 1 -1.192093E-07 0
vn -1 1.192093E-07 0
vn -1 1.192093E-07 0
vn -1 1.192093E-07 0
vn 1 -1.192093E-07 0
vn 1 -1.192093E-07 0
vn 1 -1.192093E-07 0
vn -1 1.192093E-07 0
vn -1 1.192093E-07 0
vn -1 1.192093E-07 0
vn 1 -1.192093E-07 0
vn 1 -1.192093E-07 0
vn 1 -1.192093E-07 0
vn -1 1.192093E-07 0
vn -1 1.192093E-07 0
vn -1 1.192093E-07 0
vn 1 -1.192093E-07 0
vn 1 -1.192093E-07 0
vn 1 -1.192093E-07 0
vn -1 1.192093E-07 0
vn -1 1.192093E-07 0
vn -1 1.192093E-07 0
vn 1 -1.192093E-07 0
vn 1 -1.192093E-07 0
vn 1 -1.192093E-07 0
vn -1 1.192093E-07 0
vn -1 1.192093E-07 0
vn -1 1.192093E-07 0
vn 1 -1.192093E-07 0
vn 1 -1.192093E-07 0
vn 1 -1.192093E-07 0
vn -1 1.192093E-07 0
vn -1 1.192093E-07 0
vn -1 1.192093E-07 0
vn 1 -1.192093E-07 0
vn 1 -1.192093E-07 0
vn 1 -1.192093E-07 0
vn -1 1.192093E-07 0
vn -1 1.192093E-07 0
vn -1 1.192093E-07 0
vn 1 -1.192093E-07 0
vn 1 -1.192093E-07 0
vn 1 -1.192093E-07 0
vn -1 1.192093E-07 0
vn -1 1.192093E-07 0
vn -1 1.192093E-07 0
vn 1 -1.192093E-07 0
vn 1 -1.192093E-07 0
vn 1 -1.192093E-07 0
vn -1 1.192093E-07 0
vn -1 1.192093E-07 0
vn -1 1.192093E-07 0
vn 1 -1.192093E-07 0
vn 1 -1.192093E-07 0
vn 1 -1.192093E-07 0
vn -1 1.192093E-07 0
vn -1 1.192093E-07 0
vn -1 1.192093E-07 0
vn 1 -1.192093E-07 0
vn 1 -1.192093E-07 0
vn 1 -1.192093E-07 0
vn -1 1.192093E-07 0
vn -1 1.192093E-07 0
vn -1 1.192093E-07 0
vn 1 -1.192093E-07 0
vn 1 -1.192093E-07 0
vn 1 -1.192093E-07 0
vn -1 1.192093E-07 0
vn -1 1.192093E-07 0
vn -1 1.192093E-07 0
vn 1 -1.192093E-07 0
vn 1 -1.192093E-07 0
vn 1 -1.192093E-07 0
vn -1 1.192093E-07 0
vn -1 1.192093E-07 0
vn -1 1.192093E-07 0
vn 1 -1.192093E-07 0
vn 1 -1.192093E-07 0
vn 1 -1.192093E-07 0
vn -1 1.192093E-07 0
vn -1 1.192093E-07 0
vn -1 1.192093E-07 0
vn 1 -1.192093E-07 0
vn 1 -1.192093E-07 0
vn 1 -1.192093E-07 0
vn -1 1.192093E-07 0
vn -1 1.192093E-07 0
vn -1 1.192093E-07 0
vn 1 -1.192093E-07 0
vn 1 -1.192093E-07 0
vn 1 -1.192093E-07 0
vn -1 1.192093E-07 0
vn -1 1.192093E-07 0
vn -1 1.192093E-07 0
vn 1 -1.192093E-07 0
vn 1 -1.192093E-07 0
vn 1 -1.192093E-07 0
vn -1 1.192093E-07 0
vn -1 1.192093E-07 0
vn -1 1.192093E-07 0
vn 1 -1.192093E-07 0
vn 1 -1.192093E-07 0
vn 1 -1.192093E-07 0
vn -1 1.192093E-07 0
vn -1 1.192093E-07 0
vn -1 1.192093E-07 0
vn 1 -1.192093E-07 0
vn 1 -1.192093E-07 0
vn 1 -1.192093E-07 0
vn -1 1.192093E-07 0
vn -1 1.192093E-07 0
vn -1 1.192093E-07 0
vn 1 -1.192093E-07 0
vn 1 -1.192093E-07 0
vn 1 -1.192093E-07 0
vn -1 1.192093E-07 0
vn -1 1.192093E-07 0
vn -1 1.192093E-07 0
vn 1 -1.192093E-07 0
vn 1 -1.192093E-07 0
vn 1 -1.192093E-07 0

vt -0.002610526 0
vt -0.002610526 0.02
vt 0.002610521 0
vt 0.002610521 0.02
vt -0.00261052 0
vt -0.00261052 0.02
vt 0.002610528 0
vt 0.002610528 0.02
vt -0.002610526 0
vt -0.002610526 0.02
vt 0.002610522 0
vt 0.002610522 0.02
vt -0.002610523 0
vt -0.002610523 0.02
vt 0.002610525 0
vt 0.002610525 0.02
vt -0.002610525 0
vt -0.002610525 0.02
vt 0.002610521 0
vt 0.002610521 0.02
vt -0.002610523 0
vt -0.002610523 0.02
vt 0.002610527 0
vt 0.002610527 0.02
vt -0.002610526 0
vt -0.002610526 0.02
vt 0.002610521 0
vt 0.002610521 0.02
vt -0.002610518 0
vt -0.002610518 0.02
vt 0.00261053 0
vt 0.00261053 0.02
vt -0.002610528 0
vt -0.002610528 0.02
vt 0.002610519 0
vt 0.002610519 0.02
vt -0.002610519 0
vt -0.002610519 0.02
vt 0.002610528 0
vt 0.002610528 0.02
vt -0.002610527 0
vt -0.002610527 0.02
vt 0.00261052 0
vt 0.00261052 0.02
vt -0.002610525 0
vt -0.002610525 0.02
vt 0.002610526 0
vt 0.002610526 0.02
vt -0.002610525 0
vt -0.002610525 0.02
vt 0.002610521 0
vt 0.002610521 0.02
vt -0.002610521 0
vt -0.002610521 0.02
vt 0.002610525 0
vt 0.002610525 0.02
vt -0.002610523 0
vt -0.002610523 0.02
vt 0.002610524 0
vt 0.002610524 0.02
vt -0.002610527 0
vt -0.002610527 0.02
vt 0.002610524 0
vt 0.002610524 0.02
vt -0.002610519 0
vt -0.002610519 0.02
vt 0.002610529 0
vt 0.002610529 0.02
vt -0.002610526 0
vt -0.002610526 0.02
vt 0.00261052 0
vt 0.00261052 0.02
vt -0.002610527 0
vt -0.002610527 0.02
vt 0.00261052 0
vt 0.00261052 0.02
vt -0.002610522 0
vt -0.002610522 0.02
vt 0.002610524 0
vt 0.002610524 0.02
vt -0.002610525 0
vt -0.002610525 0.02
vt 0.002610521 0
vt 0.002610521 0.02
vt -0.002610518 0
vt -0.002610518 0.02
vt 0.002610529 0
vt 0.002610529 0.02
vt -0.002610524 0
vt -0.002610524 0.02
vt 0.002610523 0
vt 0.002610523 0.02
vt -0.002610528 0
vt -0.002610528 0.02
vt 0.002610524 0
vt 0.002610524 0.02
vt -0.02 0
vt 0 0
vt -0.01931852 0.005176381
vt 0.02 0
vt 0 0
vt 0.01931852 0.005176381
vt -0.01931852 0.005176381
vt 0 0
vt -0.01732051 0.01
vt 0.01931852 0.005176381
vt 0 0
vt 0.01732051 0.01
vt -0.01732051 0.01
vt 0 0
vt -0.01414214 0.01414214
vt 0.01732051 0.01
vt 0 0
vt 0.01414214 0.01414214
vt -0.01414214 0.01414214
vt 0 0
vt -0.009999999 0.01732051
vt 0.01414214 0.01414214
vt 0 0
vt 0.009999999 0.01732051
vt -0.009999999 0.01732051
vt 0 0
vt -0.005176381 0.01931852
vt 0.009999999 0.01732051
vt 0 0
vt 0.005176381 0.01931852
vt -0.005176381 0.01931852
vt 0 0
vt 8.742277E-10 0.02
vt 0.005176381 0.01931852
vt 0 0
vt -8.742277E-10 0.02
vt 8.742277E-10 0.02
vt 0 0
vt 0.005176381 0.01931852
vt -8.742277E-10 0.02
vt 0 0
vt -0.005176381 0.01931852
vt 0.005176381 0.01931852
vt 0 0
vt 0.01 0.01732051
vt -0.005176381 0.01931852
vt 0 0
vt -0.01 0.01732051
vt 0.01 0.01732051
vt 0 0
vt 0.01414214 0.01414214
vt -0.01 0.01732051
vt 0 0
vt -0.01414214 0.01414214
vt 0.01414214 0.01414214
vt 0 0
vt 0.01732051 0.01
vt -0.01414214 0.01414214
vt 0 0
vt -0.01732051 0.01
vt 0.01732051 0.01
vt 0 0
vt 0.01931852 0.005176383
vt -0.01732051 0.01
vt 0 0
vt -0.01931852 0.005176383
vt 0.01931852 0.005176383
vt 0 0
vt 0.02 -1.748455E-09
vt -0.01931852 0.005176383
vt 0 0
vt -0.02 -1.748455E-09
vt 0.02 -1.748455E-09
vt 0 0
vt 0.01931852 -0.005176381
vt -0.02 -1.748455E-09
vt 0 0
vt -0.01931852 -0.005176381
vt 0.01931852 -0.005176381
vt 0 0
vt 0.01732051 -0.009999999
vt -0.01931852 -0.005176381
vt 0 0
vt -0.01732051 -0.009999999
vt 0.01732051 -0.009999999
vt 0 0
vt 0.01414214 -0.01414213
vt -0.01732051 -0.009999999
vt 0 0
vt -0.01414214 -0.01414213
vt 0.01414214 -0.01414213
vt 0 0
vt 0.009999998 -0.01732051
vt -0.01414214 -0.01414213
vt 0 0
vt -0.009999998 -0.01732051
vt 0.009999998 -0.01732051
vt 0 0
vt 0.005176379 -0.01931852
vt -0.009999998 -0.01732051
vt 0 0
vt -0.005176379 -0.01931852
vt 0.005176379 -0.01931852
vt 0 0
vt -2.384976E-10 -0.02
vt -0.005176379 -0.01931852
vt 0 0
vt 2.384976E-10 -0.02
vt -2.384976E-10 -0.02
vt 0 0
vt -0.00517638 -0.01931852
vt 2.384976E-10 -0.02
vt 0 0
vt 0.00517638 -0.01931852
vt -0.00517638 -0.01931852
vt 0 0
vt -0.009999998 -0.01732051
vt 0.00517638 -0.01931852
vt 0 0
vt 0.009999998 -0.01732051
vt -0.009999998 -0.01732051
vt 0 0
vt -0.01414213 -0.01414214
vt 0.009999998 -0.01732051
vt 0 0
vt 0.01414213 -0.01414214
vt -0.01414213 -0.01414214
vt 0 0
vt -0.01732051 -0.01
vt 0.01414213 -0.01414214
vt 0 0
vt 0.01732051 -0.01
vt -0.01732051 -0.01
vt 0 0
vt -0.01931852 -0.005176385
vt 0.01732051 -0.01
vt 0 0
vt 0.01931852 -0.005176385
vt -0.01931852 -0.005176385
vt 0 0
vt -0.02 0
vt 0.01931852 -0.005176385
vt 0 0
vt 0.02 0

g Button_0
usemtl Default_Prototype
f 3/3/3 4/4/4 2/2/2 1/1/1
f 7/7/7 8/8/8 6/6/6 5/5/5
f 11/11/11 12/12/12 10/10/10 9/9/9
f 15/15/15 16/16/16 14/14/14 13/13/13
f 19/19/19 20/20/20 18/18/18 17/17/17
f 23/23/23 24/24/24 22/22/22 21/21/21
f 27/27/27 28/28/28 26/26/26 25/25/25
f 31/31/31 32/32/32 30/30/30 29/29/29
f 35/35/35 36/36/36 34/34/34 33/33/33
f 39/39/39 40/40/40 38/38/38 37/37/37
f 43/43/43 44/44/44 42/42/42 41/41/41
f 47/47/47 48/48/48 46/46/46 45/45/45
f 51/51/51 52/52/52 50/50/50 49/49/49
f 55/55/55 56/56/56 54/54/54 53/53/53
f 59/59/59 60/60/60 58/58/58 57/57/57
f 63/63/63 64/64/64 62/62/62 61/61/61
f 67/67/67 68/68/68 66/66/66 65/65/65
f 71/71/71 72/72/72 70/70/70 69/69/69
f 75/75/75 76/76/76 74/74/74 73/73/73
f 79/79/79 80/80/80 78/78/78 77/77/77
f 83/83/83 84/84/84 82/82/82 81/81/81
f 87/87/87 88/88/88 86/86/86 85/85/85
f 91/91/91 92/92/92 90/90/90 89/89/89
f 95/95/95 96/96/96 94/94/94 93/93/93

g Button_1
usemtl Default_Prototype
f 97/97/97 98/98/98 99/99/99
f 103/103/103 104/104/104 105/105/105
f 109/109/109 110/110/110 111/111/111
f 115/115/115 116/116/116 117/117/117
f 121/121/121 122/122/122 123/123/123
f 127/127/127 128/128/128 129/129/129
f 133/133/133 134/134/134 135/135/135
f 139/139/139 140/140/140 141/141/141
f 145/145/145 146/146/146 147/147/147
f 151/151/151 152/152/152 153/153/153
f 157/157/157 158/158/158 159/159/159
f 163/163/163 164/164/164 165/165/165
f 169/169/169 170/170/170 171/171/171
f 175/175/175 176/176/176 177/177/177
f 181/181/181 182/182/182 183/183/183
f 187/187/187 188/188/188 189/189/189
f 193/193/193 194/194/194 195/195/195
f 199/199/199 200/200/200 201/201/201
f 205/205/205 206/206/206 207/207/207
f 211/211/211 212/212/212 213/213/213
f 217/217/217 218/218/218 219/219/219
f 223/223/223 224/224/224 225/225/225
f 229/229/229 230/230/230 231/231/231
f 235/235/235 236/236/236 237/237/237
f 102/102/102 101/101/101 100/100/100
f 108/108/108 107/107/107 106/106/106
f 114/114/114 113/113/113 112/112/112
f 120/120/120 119/119/119 118/118/118
f 126/126/126 125/125/125 124/124/124
f 132/132/132 131/131/131 130/130/130
f 138/138/138 137/137/137 136/136/136
f 144/144/144 143/143/143 142/142/142
f 150/150/150 149/149/149 148/148/148
f 156/156/156 155/155/155 154/154/154
f 162/162/162 161/161/161 160/160/160
f 168/168/168 167/167/167 166/166/166
f 174/174/174 173/173/173 172/172/172
f 180/180/180 179/179/179 178/178/178
f 186/186/186 185/185/185 184/184/184
f 192/192/192 191/191/191 190/190/190
f 198/198/198 197/197/197 196/196/196
f 204/204/204 203/203/203 202/202/202
f 210/210/210 209/209/209 208/208/208
f 216/216/216 215/215/215 214/214/214
f 222/222/222 221/221/221 220/220/220
f 228/228/228 227/227/227 226/226/226
f 234/234/234 233/233/233 232/232/232
f 240/240/240 239/239/239 238/238/238

